<svg id="Layer_1" data-name="Layer 1" xmlns="http://www.w3.org/2000/svg" viewBox="0 0 88 88"><defs><style>.cls-1{fill:#416779;}.cls-2{fill:#fff;}.cls-3{fill:#03a697;}</style></defs><circle class="cls-1" cx="44" cy="44" r="42.63"/><path class="cls-2" d="M64.3,51.8a.35.35,0,0,1-.21-.07L43.46,38.21,22.83,51.73a.39.39,0,1,1-.43-.65L43.24,37.43a.38.38,0,0,1,.43,0L64.52,51.08a.41.41,0,0,1,.11.54A.41.41,0,0,1,64.3,51.8Z"/><path class="cls-2" d="M64.3,43.93a.42.42,0,0,1-.21-.06L43.46,30.35,22.83,43.87a.4.4,0,0,1-.54-.12.37.37,0,0,1,.11-.53L43.24,29.56a.42.42,0,0,1,.43,0L64.52,43.22a.39.39,0,0,1,.11.53A.39.39,0,0,1,64.3,43.93Z"/><polygon class="cls-1" points="43.46 38.11 29.26 47.41 43.46 56.71 57.65 47.41 43.46 38.11"/><path class="cls-2" d="M43.46,57.1a.43.43,0,0,1-.22-.06l-14.19-9.3a.41.41,0,0,1-.18-.33.38.38,0,0,1,.18-.32l14.19-9.3a.38.38,0,0,1,.43,0l14.2,9.3a.4.4,0,0,1,.17.32.43.43,0,0,1-.17.33L43.67,57A.39.39,0,0,1,43.46,57.1ZM30,47.41l13.49,8.84,13.48-8.84L43.46,38.57Z"/><polygon class="cls-3" points="43.46 29.89 29.26 39.19 43.46 48.49 57.65 39.19 43.46 29.89"/><path class="cls-2" d="M43.46,49,28.55,39.19l14.91-9.76,14.9,9.76ZM30,39.19,43.46,48l13.48-8.84L43.46,30.35Z"/><polygon class="cls-1" points="43.46 21.67 29.26 30.97 43.46 40.27 57.65 30.97 43.46 21.67"/><rect class="cls-2" x="43.41" y="56.12" width="0.78" height="10.47"/><path class="cls-2" d="M43.46,40.63a.36.36,0,0,1-.22-.07l-14.19-9.3a.38.38,0,0,1-.11-.53.39.39,0,0,1,.53-.12l14,9.17,14-9.17a.4.4,0,0,1,.54.12.39.39,0,0,1-.11.53l-14.2,9.3A.33.33,0,0,1,43.46,40.63Z"/><path class="cls-2" d="M64.3,35.48a.42.42,0,0,1-.21-.06L43.46,21.9,22.83,35.42a.39.39,0,1,1-.43-.65L43.24,21.11a.42.42,0,0,1,.43,0L64.52,34.77a.39.39,0,0,1-.22.71Z"/><path class="cls-2" d="M40.94,64.89,39.63,64l.43-.65,1.3.85ZM37,62.35l-1.3-.84.42-.65,1.31.84Zm-3.9-2.53L31.83,59l.42-.65,1.3.85Zm-3.91-2.54-1.3-.84.43-.65,1.3.84Zm-3.9-2.53L24,53.9l.42-.65,1.3.85Z"/><path class="cls-2" d="M47.5,63.75l-.45-.63,1.27-.9.45.64Zm3.8-2.69-.45-.63,1.27-.9.45.64Zm3.8-2.68-.45-.64,1.27-.89.45.63Zm3.8-2.69-.45-.64,1.27-.89.45.63ZM62.7,53l-.45-.63,1.27-.9.45.63Z"/><path class="cls-2" d="M23.25,49.88h-.77v-.24h.77Zm0-3.34h-.77V45h.77Z"/><path class="cls-2" d="M23.25,41.53h-.77v-.24h.77Zm0-3.34h-.77V36.64h.77Z"/><path class="cls-2" d="M64.37,50h-.78v-.24h.78Zm0-3.35h-.78V45.13h.78Z"/><path class="cls-2" d="M64.37,41.68h-.78v-.24h.78Zm0-3.34h-.78V36.78h.78Z"/></svg>