<svg id="Layer_1" data-name="Layer 1" xmlns="http://www.w3.org/2000/svg" viewBox="0 0 88 88"><defs><style>.cls-1{fill:#416779;}.cls-2{fill:#fff;}.cls-3{fill:#03a697;}</style></defs><circle class="cls-1" cx="44" cy="44" r="42.63"/><path class="cls-1" d="M30,34.14a2.7,2.7,0,1,1-2.69-2.69A2.7,2.7,0,0,1,30,34.14Z"/><path class="cls-2" d="M27.31,37.24a3.11,3.11,0,1,1,3.1-3.1A3.1,3.1,0,0,1,27.31,37.24Zm0-5.38a2.28,2.28,0,1,0,2.27,2.28A2.28,2.28,0,0,0,27.31,31.86Z"/><path class="cls-3" d="M30.33,26.23a2.69,2.69,0,1,1-2.69-2.69A2.68,2.68,0,0,1,30.33,26.23Z"/><path class="cls-2" d="M27.64,29.34a3.11,3.11,0,1,1,3.11-3.11A3.11,3.11,0,0,1,27.64,29.34Zm0-5.38a2.28,2.28,0,1,0,2.28,2.27A2.27,2.27,0,0,0,27.64,24Z"/><path class="cls-1" d="M52.59,47.93a2.69,2.69,0,1,1-2.69-2.69A2.7,2.7,0,0,1,52.59,47.93Z"/><path class="cls-2" d="M49.9,51A3.11,3.11,0,1,1,53,47.93,3.1,3.1,0,0,1,49.9,51Zm0-5.38a2.28,2.28,0,1,0,2.27,2.28A2.28,2.28,0,0,0,49.9,45.65Z"/><path class="cls-1" d="M63,34a2.7,2.7,0,1,1-2.7-2.69A2.69,2.69,0,0,1,63,34Z"/><path class="cls-2" d="M60.32,37.08A3.11,3.11,0,1,1,63.43,34,3.11,3.11,0,0,1,60.32,37.08Zm0-5.38A2.27,2.27,0,1,0,62.6,34,2.27,2.27,0,0,0,60.32,31.7Z"/><circle class="cls-1" cx="27.31" cy="47.26" r="2.69"/><path class="cls-2" d="M27.31,50.36a3.11,3.11,0,1,1,3.1-3.1A3.1,3.1,0,0,1,27.31,50.36Zm0-5.38a2.28,2.28,0,1,0,2.27,2.28A2.28,2.28,0,0,0,27.31,45Z"/><path class="cls-1" d="M42.19,61.05a2.69,2.69,0,1,1-2.69-2.69A2.69,2.69,0,0,1,42.19,61.05Z"/><path class="cls-2" d="M39.5,64.15a3.11,3.11,0,1,1,3.11-3.1A3.1,3.1,0,0,1,39.5,64.15Zm0-5.38a2.28,2.28,0,1,0,2.28,2.28A2.28,2.28,0,0,0,39.5,58.77Z"/><path class="cls-3" d="M63.39,61.05a2.7,2.7,0,1,1-2.7-2.69A2.7,2.7,0,0,1,63.39,61.05Z"/><path class="cls-2" d="M60.69,64.15a3.11,3.11,0,1,1,3.11-3.1A3.1,3.1,0,0,1,60.69,64.15Zm0-5.38A2.28,2.28,0,1,0,63,61.05,2.28,2.28,0,0,0,60.69,58.77Z"/><path class="cls-2" d="M55.78,61.46h-.26v-.83h.26Zm-1.92,0H52.19v-.83h1.67Zm-3.34,0H48.86v-.83h1.66Zm-3.33,0H45.53v-.83h1.66Z"/><path class="cls-2" d="M34.29,61.29H32.62v-.83h1.67Zm-3.34,0H29.29v-.83H31Zm-3.33,0H26.44V60h.83v.48h.35Zm-.35-3h-.83V56.64h.83Zm0-3.33h-.83V53.31h.83Z"/><path class="cls-1" d="M37.45,25.9a2.36,2.36,0,0,1,2.36-2.36h0a2.36,2.36,0,0,1,2.35,2.36V47.09a2.35,2.35,0,0,1-2.35,2.35h0a2.36,2.36,0,0,1-2.36-2.35Z"/><path class="cls-2" d="M39.81,49.86A2.78,2.78,0,0,1,37,47.09V25.9a2.77,2.77,0,1,1,5.54,0V47.09A2.78,2.78,0,0,1,39.81,49.86Zm0-25.9a1.94,1.94,0,0,0-1.94,1.94V47.09a1.94,1.94,0,1,0,3.87,0V25.9A1.94,1.94,0,0,0,39.81,24Z"/><path class="cls-3" d="M47.88,25.9a2.36,2.36,0,0,1,2.35-2.36h0a2.36,2.36,0,0,1,2.36,2.36V38.34a2.36,2.36,0,0,1-2.36,2.36h0a2.36,2.36,0,0,1-2.35-2.36Z"/><path class="cls-1" d="M57.63,26.23a2.7,2.7,0,1,1,2.69,2.69A2.7,2.7,0,0,1,57.63,26.23Z"/><path class="cls-2" d="M60.32,29.34a3.11,3.11,0,1,1,3.11-3.11A3.1,3.1,0,0,1,60.32,29.34Zm0-5.38a2.28,2.28,0,1,0,2.28,2.27A2.27,2.27,0,0,0,60.32,24Z"/><path class="cls-1" d="M62.68,48.1a2.36,2.36,0,0,1-2.36,2.35h0A2.35,2.35,0,0,1,58,48.1V41.7a2.35,2.35,0,0,1,2.35-2.35h0a2.36,2.36,0,0,1,2.36,2.35Z"/><path class="cls-2" d="M60.32,50.87a2.78,2.78,0,0,1-2.77-2.77V41.7a2.78,2.78,0,0,1,5.55,0v6.4A2.78,2.78,0,0,1,60.32,50.87Zm0-11.1a1.94,1.94,0,0,0-1.93,1.93v6.4a1.94,1.94,0,0,0,3.87,0V41.7A1.94,1.94,0,0,0,60.32,39.77Z"/><path class="cls-2" d="M27.31,42.29a.42.42,0,0,1-.42-.42V36.66a.42.42,0,1,1,.83,0v5.21A.41.41,0,0,1,27.31,42.29Z"/><path class="cls-2" d="M42.66,57.6a.43.43,0,0,1-.29-.13.42.42,0,0,1,0-.59l4.21-4.2a.41.41,0,0,1,.58,0,.41.41,0,0,1,0,.59L43,57.47A.43.43,0,0,1,42.66,57.6Z"/><path class="cls-2" d="M57.8,57.76a.42.42,0,0,1-.29-.12l-4.21-4.2a.42.42,0,1,1,.59-.59l4.21,4.2a.42.42,0,0,1-.3.71Z"/><rect class="cls-3" x="24.78" y="58.02" width="4.71" height="4.71"/></svg>