<svg id="Layer_1" data-name="Layer 1" xmlns="http://www.w3.org/2000/svg" viewBox="0 0 88 88"><defs><style>.cls-1{fill:#416779;}.cls-2{fill:#fff;}.cls-3{fill:#03a697;}</style></defs><circle class="cls-1" cx="44" cy="44" r="42.63"/><path class="cls-2" d="M63.57,63.19H61.75v-.81h1.42v.2h.4Zm-3.44,0H58.5v-.81h1.63Zm-3.25,0H55.26v-.81h1.62Zm-3.24,0H52v-.81h1.63Zm-3.25,0H48.77v-.81h1.62Zm-3.25,0H45.52v-.81h1.62Zm-3.24,0H42.28v-.81H43.9Zm-3.25,0H39v-.81h1.62Zm-3.24,0H35.78v-.81h1.63Zm-3.25,0H32.54v-.81h1.62Zm-3.24,0H29.29v-.81h1.63Zm-3.25,0H26.05v-.81h1.62Zm-2.43-.81h-.81V60.75h.81ZM63.57,61h-.81V59.33h.81ZM25.24,59.13h-.81V57.51h.81Zm38.33-1.42h-.81V56.09h.81ZM25.24,55.89h-.81V54.26h.81Zm38.33-1.42h-.81V52.84h.81ZM25.24,52.64h-.81V51h.81Zm38.33-1.42h-.81V49.6h.81ZM25.24,49.39h-.81V47.77h.81ZM63.57,48h-.81V46.35h.81ZM25.24,46.15h-.81V44.53h.81Zm38.33-1.42h-.81V43.11h.81ZM25.24,42.9h-.81V41.28h.81Zm38.33-1.42h-.81V39.86h.81ZM25.24,39.66h-.81V38h.81Zm38.33-1.42h-.81V36.61h.81ZM25.24,36.41h-.81V34.79h.81ZM63.57,35h-.81V33.37h.81ZM25.24,33.17h-.81V31.54h.81Zm38.33-1.42h-.81V30.12h.81ZM25.24,29.92h-.81V28.3h.81ZM63.57,28.5h-.81V26.88h.81ZM25.24,26.67h-.81V25.05h.81Zm38.33-1.42h-.81v-.39h-.42v-.81h1.23Zm-2.85-.39H59.1v-.81h1.62Zm-3.25,0H55.85v-.81h1.62Zm-3.24,0H52.61v-.81h1.62Zm-3.25,0H49.36v-.81H51Zm-13.76,0H35.6v-.81h1.62Zm-3.25,0H32.35v-.81H34Zm-3.24,0H29.11v-.81h1.62Zm-3.25,0H25.86v-.81h1.62Z"/><rect class="cls-2" x="22.45" y="49.28" width="25.18" height="0.81" transform="translate(-24.81 60.38) rotate(-64.94)"/><rect class="cls-2" x="52.59" y="37.1" width="0.81" height="25.18" transform="translate(-16.07 27.15) rotate(-25.08)"/><path class="cls-2" d="M44,39.9A7,7,0,1,1,51,33,7,7,0,0,1,44,39.9Zm0-13.1A6.15,6.15,0,1,0,50.16,33,6.15,6.15,0,0,0,44,26.8Z"/><path class="cls-2" d="M44,26.56c-1.36,0-2.09-2.34-2.09-4.53S42.66,17.5,44,17.5s2.09,2.33,2.09,4.53S45.38,26.56,44,26.56Zm0-8.25c-.52,0-1.28,1.45-1.28,3.72s.76,3.72,1.28,3.72S45.3,24.3,45.3,22,44.54,18.31,44,18.31Z"/><path class="cls-2" d="M44,48.64a15.94,15.94,0,0,1-13.17-7l.67-.46a15.12,15.12,0,0,0,25,0l.67.46A15.94,15.94,0,0,1,44,48.64Z"/><rect class="cls-2" x="43.59" y="45.32" width="0.81" height="5.82"/><path class="cls-3" d="M48.39,32.7A4.37,4.37,0,1,1,44,28.34,4.37,4.37,0,0,1,48.39,32.7Z"/><polygon class="cls-3" points="32.96 27.12 29.69 27.12 27.26 27.12 27.26 29.55 27.26 32.82 29.69 32.82 29.69 29.55 32.96 29.55 32.96 27.12"/><polygon class="cls-3" points="60.74 32.82 60.74 29.55 60.74 27.12 58.31 27.12 55.04 27.12 55.04 29.55 58.31 29.55 58.31 32.82 60.74 32.82"/></svg>