<svg id="Layer_1" data-name="Layer 1" xmlns="http://www.w3.org/2000/svg" viewBox="0 0 88 88"><defs><style>.cls-1,.cls-4{fill:#416779;}.cls-2{fill:#fff;}.cls-3{fill:#03a697;}.cls-4{fill-rule:evenodd;}</style></defs><circle class="cls-1" cx="44" cy="44" r="42.63"/><rect class="cls-1" x="32.55" y="24.25" width="33.31" height="38.8"/><path class="cls-2" d="M65.87,63.49H32.55a.44.44,0,0,1-.43-.44V24.25a.44.44,0,0,1,.43-.44H65.87a.44.44,0,0,1,.44.44v38.8A.44.44,0,0,1,65.87,63.49ZM33,62.61H65.43V24.69H33Z"/><rect class="cls-2" x="32.55" y="35.96" width="33.31" height="0.88"/><rect class="cls-3" x="35.69" y="26.99" width="27.04" height="5.88"/><rect class="cls-2" x="48.77" y="36.4" width="0.88" height="26.65"/><rect class="cls-2" x="32.55" y="49.29" width="33.31" height="0.88"/><rect class="cls-2" x="40.21" y="40.91" width="0.88" height="5.49"/><rect class="cls-2" x="37.91" y="43.21" width="5.49" height="0.88"/><rect class="cls-2" x="37.91" y="56.73" width="5.49" height="0.88" transform="translate(-28.52 45.49) rotate(-45)"/><rect class="cls-2" x="40.22" y="54.43" width="0.88" height="5.49" transform="translate(-28.52 45.51) rotate(-45.02)"/><rect class="cls-2" x="55.16" y="54.79" width="6.27" height="0.88"/><rect class="cls-2" x="55.16" y="57.52" width="6.27" height="0.88"/><rect class="cls-2" x="53.22" y="42.77" width="8.54" height="0.88" transform="translate(-13.72 53.3) rotate(-45)"/><rect class="cls-2" x="54.72" y="40.37" width="2.96" height="0.88" transform="translate(-12.39 51.68) rotate(-45)"/><rect class="cls-2" x="57.33" y="45.01" width="2.96" height="0.88" transform="translate(-14.91 54.9) rotate(-45)"/><rect class="cls-2" x="57.61" y="28.37" width="2.29" height="3.11"/><rect class="cls-2" x="55.84" y="28.37" width="1.02" height="3.11"/><polygon class="cls-4" points="27.48 30.02 24.86 26.32 22.13 30.02 22.13 62.22 27.48 62.22 27.48 30.02"/><path class="cls-2" d="M27.48,62.66H22.13a.44.44,0,0,1-.44-.44V30a.43.43,0,0,1,.09-.26l2.73-3.7a.42.42,0,0,1,.36-.18.44.44,0,0,1,.35.18l2.62,3.71a.44.44,0,0,1,.08.25v32.2A.44.44,0,0,1,27.48,62.66Zm-4.91-.88h4.48V30.16l-2.2-3.09-2.28,3.1Z"/><path class="cls-2" d="M24.86,26.91a.44.44,0,0,1-.44-.44V23.54a.44.44,0,0,1,.88,0v2.93A.44.44,0,0,1,24.86,26.91Z"/><path class="cls-2" d="M27,34.47H22.54a.44.44,0,0,1,0-.87H27a.44.44,0,1,1,0,.87Z"/><path class="cls-2" d="M30,62.29a.43.43,0,0,1-.44-.43v-7.6H22.24a.44.44,0,1,1,0-.88H30a.43.43,0,0,1,.3.13.4.4,0,0,1,.13.31v8A.43.43,0,0,1,30,62.29Z"/></svg>